<?xml version="1.0" encoding="utf-8"?>
<!-- Generator: Adobe Illustrator 21.0.0, SVG Export Plug-In . SVG Version: 6.00 Build 0)  -->
<svg version="1.1" id="Layer_1" xmlns="http://www.w3.org/2000/svg" xmlns:xlink="http://www.w3.org/1999/xlink" x="0px" y="0px"
	 viewBox="0 0 256 256" style="enable-background:new 0 0 256 256;" xml:space="preserve">
<style type="text/css">
	.st0{opacity:0.25;fill:#FFFFFF;}
</style>
<title>sloth-bg</title>
<path class="st0" d="M89,8.5c0,7.5-6.1,13.6-13.6,13.6c-7.5,0-13.6-6.1-13.6-13.6S67.9-5.1,75.4-5.1l0,0C82.9-5.1,89,1,89,8.5z
	 M129.3,3.9l-0.2,0.4c-0.9,1.5-23.2,37.5-53.6,37.5S22.7,5.9,21.8,4.3l-0.2-0.4C19.4-2,19.5-8.6,21.9-14.5
	c3.6-8.7,11.7-15.6,24.2-20.7c8.4-3.4,16.3-6.2,29.1-6.7h0.3c12.8,0.5,20.8,3.3,29.1,6.7c12.5,5,20.7,12,24.2,20.7
	C131.3-8.7,131.5-2.1,129.3,3.9z M115.1,10.7l-8.4-4.5c-1.3,0.7-2.8,1-4.3,1c-5.4,0-9.8-4.4-9.8-9.8c0,0,0,0,0,0
	c0-5.4,4.4-9.8,9.8-9.8l0,0c5.1,0,9.4,3.9,9.8,9l9.7,5.2l0.6-1c1.4-4.1,1.2-8.5-0.5-12.5c-2.8-6.7-9.6-12.2-20.1-16.5
	c-7.7-3.1-15-5.7-26.5-6.1s-18.6,2.9-26.5,6.1C38.4-24,31.6-18.5,28.8-11.8c-1.7,4-1.9,8.4-0.5,12.5l0.6,1l9.7-5.2
	c0.4-5.1,4.7-9,9.8-9c5.4,0,9.8,4.4,9.8,9.8s-4.4,9.8-9.8,9.8c-1.5,0-3-0.3-4.3-1l-8.4,4.5c8.4,10,22.9,23.7,39.7,23.7
	S106.7,20.7,115.1,10.7z"/>
<path class="st0" d="M89,264.5c0,7.5-6.1,13.6-13.6,13.6s-13.6-6.1-13.6-13.6c0-7.5,6.1-13.6,13.6-13.6S89,257,89,264.5L89,264.5z
	 M129.3,259.9l-0.2,0.4c-0.9,1.5-23.2,37.5-53.6,37.5s-52.7-36-53.6-37.5l-0.2-0.4c-2.2-5.9-2.1-12.5,0.3-18.4
	c3.6-8.7,11.7-15.6,24.2-20.7c8.4-3.4,16.3-6.2,29.1-6.7h0.3c12.8,0.5,20.8,3.3,29.1,6.7c12.5,5,20.7,12,24.2,20.7
	C131.4,247.4,131.5,253.9,129.3,259.9z M115.1,266.7l-8.4-4.5c-4.9,2.4-10.7,0.3-13.1-4.6c-2.4-4.9-0.3-10.7,4.6-13.1
	c4.9-2.4,10.7-0.3,13.1,4.6c0.5,1.1,0.8,2.2,0.9,3.4l9.7,5.2l0.6-1c1.4-4.1,1.2-8.5-0.5-12.5c-2.8-6.7-9.6-12.2-20.1-16.5
	c-7.7-3.1-15-5.7-26.5-6.1s-18.6,2.9-26.5,6.1c-10.5,4.2-17.3,9.8-20.1,16.5c-1.7,4-1.9,8.4-0.5,12.5l0.6,1l9.7-5.2
	c0.5-5.4,5.2-9.5,10.7-9.1c5.4,0.5,9.5,5.2,9.1,10.7c-0.5,5.4-5.2,9.5-10.7,9.1c-1.2-0.1-2.4-0.4-3.6-1l-8.4,4.5
	c8.4,10,22.9,23.7,39.7,23.7S106.7,276.7,115.1,266.7L115.1,266.7z"/>
<path class="st0" d="M194.1,136.5c0,7.5-6.1,13.6-13.6,13.6c-7.5,0-13.6-6.1-13.6-13.6c0-7.5,6.1-13.6,13.6-13.6
	S194.1,129,194.1,136.5L194.1,136.5z M234.4,131.9l-0.2,0.4c-0.9,1.5-23.2,37.5-53.6,37.5s-52.7-36-53.6-37.5l-0.2-0.4
	c-2.2-5.9-2.1-12.5,0.3-18.4c3.6-8.7,11.7-15.6,24.2-20.7c8.4-3.4,16.3-6.2,29.1-6.7h0.3c12.8,0.5,20.8,3.3,29.1,6.7
	c12.5,5,20.7,12,24.2,20.7C236.5,119.4,236.6,125.9,234.4,131.9L234.4,131.9z M220.2,138.7l-8.4-4.5c-4.9,2.4-10.7,0.3-13.1-4.6
	c-2.4-4.9-0.3-10.7,4.6-13.1c4.9-2.4,10.7-0.3,13.1,4.6c0.5,1.1,0.8,2.2,0.9,3.4l9.7,5.2l0.6-1c1.4-4.1,1.2-8.5-0.5-12.5
	c-2.8-6.7-9.6-12.2-20.1-16.5c-7.7-3.1-15-5.7-26.5-6.1s-18.6,2.9-26.5,6.1c-10.5,4.2-17.3,9.8-20.1,16.5c-1.7,4-1.9,8.4-0.5,12.5
	l0.6,1l9.7-5.2c0.5-5.4,5.2-9.5,10.7-9.1c5.4,0.5,9.5,5.2,9.1,10.7c-0.5,5.4-5.2,9.5-10.7,9.1c-1.2-0.1-2.4-0.4-3.6-1l-8.4,4.5
	c8.4,10,22.9,23.7,39.7,23.7S211.9,148.7,220.2,138.7L220.2,138.7z"/>
</svg>
